<svg width="24" height="24" viewBox="0 0 24 24" fill="#2D7DD2" xmlns="http://www.w3.org/2000/svg">
<path opacity="0.15" d="M4 10L12 3L20 10L20 20H15V16C15 15.2044 14.6839 14.4413 14.1213 13.8787C13.5587 13.3161 12.7957 13 12 13C11.2044 13 10.4413 13.3161 9.87868 13.8787C9.31607 14.4413 9 15.2043 9 16V20H4L4 10Z" fill="#2D7DD2"/>
<path d="M4 11L12 4L20 11L20 21H15V17C15 16.2044 14.6839 15.4413 14.1213 14.8787C13.5587 14.3161 12.7957 14 12 14C11.2044 14 10.4413 14.3161 9.87868 14.8787C9.31607 15.4413 9 16.2043 9 17V21H4L4 11Z" stroke="#001A72" stroke-width="1.5" stroke-linecap="round" stroke-linejoin="round"/>
</svg>
